<?xml version="1.0" standalone="no"?>
<!DOCTYPE svg PUBLIC "-//W3C//DTD SVG 20010904//EN"
 "http://www.w3.org/TR/2001/REC-SVG-20010904/DTD/svg10.dtd">
<svg version="1.0" xmlns="http://www.w3.org/2000/svg"
 width="210.000000pt" height="189.000000pt" viewBox="0 0 210.000000 189.000000"
 preserveAspectRatio="xMidYMid meet">
<metadata>
Created by potrace 1.10, written by Peter Selinger 2001-2011
</metadata>
<g transform="translate(0.000000,189.000000) scale(0.100000,-0.100000)"
fill="#892100" stroke="none">
<path d="M917 1839 c-16 -9 -17 -31 -12 -312 5 -322 2 -362 -23 -372 -9 -3
-164 -6 -344 -6 -247 0 -328 -3 -329 -12 -1 -13 0 -297 0 -309 1 -4 149 -7
331 -5 305 2 331 1 347 -16 17 -16 18 -42 16 -342 -2 -202 1 -326 7 -330 6 -3
80 -6 167 -6 161 0 181 5 167 41 -3 8 -5 152 -5 319 1 263 3 307 16 320 14 14
58 16 339 14 245 -2 326 1 333 10 4 7 6 80 3 162 l-5 150 -337 5 c-185 3 -339
8 -342 11 -4 4 -7 158 -7 343 l0 336 -132 0 c-73 0 -141 2 -152 5 -11 3 -28 0
-38 -6z"/>
<path d="M1463 1722 c-10 -10 -38 -33 -63 -52 -25 -19 -62 -50 -82 -69 l-38
-35 0 -93 c0 -51 3 -93 7 -93 3 0 34 26 67 58 34 31 77 71 96 87 51 44 90 98
90 126 0 27 -34 89 -49 89 -6 0 -18 -8 -28 -18z"/>
<path d="M582 1714 c-31 -21 -28 -39 12 -69 19 -15 53 -52 77 -83 54 -74 167
-185 179 -177 15 10 13 182 -3 192 -7 4 -28 28 -47 52 -71 92 -159 126 -218
85z"/>
<path d="M1574 1577 c-33 -34 -113 -112 -177 -173 -111 -105 -117 -113 -117
-150 0 -51 14 -64 68 -64 38 0 48 5 75 38 30 35 62 66 215 212 59 57 62 62 62
107 -1 50 -25 94 -52 92 -7 0 -40 -28 -74 -62z"/>
<path d="M438 1592 c-16 -9 -28 -23 -28 -30 0 -7 28 -41 63 -75 34 -34 98
-102 142 -151 96 -107 146 -146 190 -146 42 0 55 16 55 68 0 39 -5 49 -37 76
-20 17 -66 62 -102 100 -161 169 -169 176 -214 176 -23 0 -54 -8 -69 -18z"/>
<path d="M1740 1461 c-19 -23 -59 -60 -89 -83 -71 -52 -180 -159 -181 -175 0
-10 24 -13 86 -13 l86 0 58 45 c87 67 120 113 120 168 0 34 -6 53 -23 73 l-24
27 -33 -42z"/>
<path d="M348 1437 c-45 -18 -45 -42 1 -86 23 -22 41 -43 41 -48 0 -5 22 -33
48 -61 l49 -52 79 0 c43 0 84 4 91 8 8 5 -5 25 -40 62 -29 31 -71 79 -95 108
-35 41 -54 55 -95 67 -28 8 -51 15 -51 14 -1 -1 -13 -6 -28 -12z"/>
<path d="M422 717 c-35 -28 -72 -65 -82 -82 -26 -40 -26 -112 0 -145 l20 -25
43 46 c24 25 74 69 113 99 72 54 154 135 154 151 0 5 -42 9 -92 9 l-93 0 -63
-53z"/>
<path d="M729 755 c-8 -8 -30 -34 -49 -58 -19 -24 -60 -63 -90 -88 -30 -24
-76 -65 -102 -90 -45 -43 -48 -50 -48 -95 1 -57 34 -109 63 -98 9 3 17 10 17
15 0 13 68 82 158 158 93 79 170 164 178 197 3 12 4 33 2 45 -3 22 -9 24 -59
27 -41 2 -60 -1 -70 -13z"/>
<path d="M1287 763 c-4 -3 -7 -28 -7 -54 0 -47 1 -48 75 -110 41 -34 75 -64
75 -68 0 -6 42 -55 98 -115 15 -16 46 -38 69 -48 42 -19 44 -19 88 1 25 11 45
26 45 33 0 8 -78 94 -172 191 l-173 177 -46 0 c-25 0 -49 -3 -52 -7z"/>
<path d="M1470 764 c0 -4 22 -29 49 -58 27 -28 75 -79 107 -113 49 -52 65 -62
94 -64 72 -3 89 1 100 22 10 17 6 27 -27 63 -21 24 -60 69 -86 100 l-48 56
-95 0 c-52 0 -94 -3 -94 -6z"/>
<path d="M804 548 c-22 -24 -62 -61 -89 -83 -73 -57 -89 -76 -104 -123 -13
-38 -12 -47 2 -77 9 -19 24 -35 33 -35 9 0 35 18 57 39 23 21 67 59 97 83 l55
44 3 97 c1 53 -1 97 -6 97 -5 0 -27 -19 -48 -42z"/>
<path d="M1286 583 c-3 -3 -6 -46 -6 -94 l0 -87 78 -81 c77 -79 91 -87 147
-82 34 2 75 23 75 37 0 8 -21 35 -47 61 -46 46 -124 136 -150 174 -19 27 -89
79 -97 72z"/>
</g>
</svg>
