<?xml version="1.0" standalone="no"?>
<!DOCTYPE svg PUBLIC "-//W3C//DTD SVG 20010904//EN"
 "http://www.w3.org/TR/2001/REC-SVG-20010904/DTD/svg10.dtd">
<svg version="1.0" xmlns="http://www.w3.org/2000/svg"
 width="630.000000pt" height="255.000000pt" viewBox="0 0 630.000000 255.000000"
 preserveAspectRatio="xMidYMid meet">
<metadata>
Created by potrace 1.10, written by Peter Selinger 2001-2011
</metadata>
<g transform="translate(0.000000,255.000000) scale(0.100000,-0.100000)"
fill="#8a2000" stroke="none">
<path d="M948 2500 c-16 -10 -18 -37 -15 -335 2 -286 0 -326 -14 -340 -14 -14
-57 -16 -347 -16 -250 0 -332 -3 -333 -12 -1 -13 0 -297 0 -309 1 -4 149 -7
331 -5 305 2 331 1 347 -16 17 -16 18 -42 16 -347 l-3 -330 23 -1 c12 0 87 -1
166 0 148 0 168 6 155 41 -3 8 -5 152 -5 319 1 263 3 307 16 320 14 14 58 16
339 14 245 -2 326 1 333 10 4 7 6 80 3 162 l-5 150 -331 3 c-267 2 -334 5
-343 16 -8 10 -12 111 -12 345 l0 331 -132 0 c-73 0 -141 2 -152 5 -11 3 -28
0 -37 -5z"/>
<path d="M1493 2385 c-5 -8 -31 -31 -59 -52 -27 -21 -67 -53 -87 -72 l-37 -34
0 -94 c0 -51 3 -93 7 -93 3 0 34 26 67 58 34 31 77 71 96 87 51 44 90 98 90
126 0 31 -35 89 -54 89 -8 0 -19 -7 -23 -15z"/>
<path d="M612 2374 c-31 -21 -28 -39 12 -69 19 -15 53 -52 77 -83 54 -74 167
-185 179 -177 15 10 13 182 -3 192 -7 4 -28 28 -47 52 -71 92 -159 126 -218
85z"/>
<path d="M1605 2238 c-33 -33 -113 -111 -177 -173 -112 -106 -118 -114 -118
-152 0 -50 14 -63 68 -63 39 0 49 5 76 37 29 36 71 77 214 213 59 57 62 62 62
107 -1 50 -25 94 -52 92 -7 0 -40 -27 -73 -61z"/>
<path d="M468 2252 c-16 -9 -28 -23 -28 -30 0 -7 28 -41 63 -75 34 -34 98
-102 142 -151 96 -107 146 -146 190 -146 42 0 55 16 55 68 0 39 -5 49 -37 76
-20 17 -66 62 -102 100 -161 169 -169 176 -214 176 -23 0 -54 -8 -69 -18z"/>
<path d="M1770 2121 c-19 -23 -59 -60 -89 -83 -71 -52 -180 -159 -181 -175 0
-10 24 -13 86 -13 l86 0 58 45 c87 67 120 113 120 168 0 34 -6 53 -23 73 l-24
27 -33 -42z"/>
<path d="M378 2097 c-45 -18 -45 -42 1 -86 23 -22 41 -44 41 -50 0 -5 22 -33
49 -60 l48 -51 79 0 c43 0 84 4 91 8 9 5 -5 26 -43 66 -30 32 -73 81 -95 107
-32 38 -52 52 -92 64 -28 8 -51 15 -51 14 -1 -1 -13 -6 -28 -12z"/>
<path d="M4203 1823 c-65 -13 -93 -113 -52 -180 43 -69 111 -78 165 -22 26 27
29 37 29 94 0 52 -4 68 -21 85 -21 22 -79 33 -121 23z"/>
<path d="M2505 1770 c-89 -24 -143 -44 -157 -58 -7 -7 -18 -12 -25 -12 -7 0
-43 -29 -78 -65 -36 -35 -65 -71 -65 -78 0 -7 -5 -18 -12 -25 -27 -27 -68
-185 -68 -262 0 -50 22 -165 37 -196 6 -10 18 -36 28 -57 32 -66 119 -152 187
-185 93 -45 143 -57 243 -57 111 1 188 23 241 70 43 39 64 44 64 17 0 -32 67
-82 110 -82 44 0 121 33 163 70 52 46 78 53 86 23 3 -12 16 -33 28 -47 31 -35
89 -35 148 -1 42 25 95 83 95 104 0 19 -21 23 -45 7 -29 -19 -51 -20 -62 -3
-4 6 -8 120 -8 252 0 224 -1 242 -20 267 -34 46 -93 68 -177 68 -119 0 -223
-45 -291 -125 -56 -67 -40 -144 27 -131 68 14 100 39 131 102 40 82 52 94 89
94 49 0 56 -14 56 -116 l0 -93 -34 -26 c-19 -14 -80 -48 -135 -76 -63 -31
-110 -61 -123 -80 -25 -33 -45 -37 -64 -11 -13 16 -15 16 -30 -3 -8 -11 -27
-44 -41 -74 -34 -71 -68 -108 -120 -132 -51 -23 -76 -24 -136 -3 -160 54 -258
346 -198 591 28 114 59 176 112 225 120 109 255 83 334 -63 17 -33 30 -45 50
-47 l27 -4 -7 79 c-9 103 -24 123 -106 145 -83 22 -167 21 -254 -2z m729 -704
c0 -98 -1 -99 -32 -127 -88 -78 -191 13 -134 118 16 30 89 93 122 106 40 16
45 5 44 -97z"/>
<path d="M4602 1703 c-7 -3 -23 -26 -36 -51 -28 -54 -82 -109 -152 -155 -58
-38 -63 -61 -17 -65 55 -5 58 -20 58 -287 l1 -240 28 -48 c30 -50 74 -77 126
-77 41 0 114 34 137 64 27 34 60 34 73 1 12 -30 65 -65 101 -65 51 0 152 51
189 95 24 28 70 12 70 -26 0 -25 44 -49 88 -49 25 0 54 10 85 30 26 16 50 30
53 30 4 0 23 -13 43 -28 86 -67 251 -67 357 0 103 66 147 204 97 309 -20 43
-88 109 -111 109 -5 0 -23 7 -38 15 -16 8 -38 15 -49 16 -30 1 -96 41 -118 71
-19 25 -19 30 -6 54 20 38 54 57 102 58 42 1 96 -27 97 -50 0 -5 16 -27 35
-48 29 -32 38 -36 50 -26 21 17 29 73 16 112 -9 28 -19 36 -64 51 -104 34
-239 16 -316 -42 -59 -44 -81 -91 -81 -169 0 -61 4 -74 30 -111 17 -23 41 -46
53 -51 12 -6 29 -14 37 -19 8 -5 26 -13 40 -19 140 -58 200 -102 200 -146 0
-37 -39 -84 -85 -102 -42 -16 -48 -16 -90 1 -50 18 -83 56 -115 127 -29 65
-70 77 -70 20 -1 -37 -34 -74 -62 -70 l-23 3 -5 245 c-6 278 -10 294 -82 331
-35 18 -54 20 -137 17 -81 -3 -105 -8 -155 -32 -67 -33 -114 -77 -145 -136
-27 -51 -26 -56 4 -76 22 -14 31 -15 71 -4 53 15 114 71 114 105 0 13 7 28 15
35 8 7 15 19 15 26 0 8 12 19 26 25 63 23 95 -23 91 -132 -3 -67 -5 -74 -34
-98 -29 -24 -74 -48 -163 -90 -82 -37 -138 -100 -164 -183 -6 -21 -63 -58 -88
-58 -10 0 -26 16 -38 40 -18 36 -20 58 -20 253 0 152 3 216 12 225 7 7 33 12
59 12 62 0 79 7 79 35 0 28 -17 35 -85 35 -70 0 -78 13 -69 118 7 81 0 97 -34
85z m545 -628 c3 -86 2 -92 -25 -124 -23 -27 -36 -34 -69 -35 -60 -1 -83 23
-83 89 0 46 4 54 38 86 60 58 95 80 116 77 19 -3 21 -11 23 -93z"/>
<path d="M3723 1517 c-34 -42 -99 -85 -158 -105 -50 -17 -60 -24 -60 -44 0
-18 6 -24 30 -26 55 -7 55 -7 55 -244 l0 -219 -45 -19 c-31 -13 -45 -25 -45
-38 0 -18 10 -20 162 -24 185 -4 217 -2 225 20 7 18 -22 42 -52 42 -12 0 -30
9 -39 19 -16 17 -17 42 -16 210 1 199 10 255 43 275 16 9 25 4 60 -37 36 -40
47 -47 79 -47 27 0 44 8 66 29 43 44 80 45 108 4 16 -25 19 -51 20 -215 2
-212 -3 -230 -70 -242 -36 -7 -54 -32 -36 -50 15 -15 369 -11 384 4 16 16 -6
44 -41 51 -56 11 -54 -2 -53 332 1 172 -2 320 -5 330 -10 26 -25 21 -70 -22
-45 -44 -159 -105 -181 -97 -8 3 -14 13 -14 23 0 10 -14 35 -31 56 -27 33 -35
37 -78 37 -50 0 -80 -16 -119 -62 -14 -17 -34 -28 -48 -28 -23 0 -24 3 -19 34
13 68 -16 98 -52 53z"/>
<path d="M452 1377 c-35 -28 -72 -65 -82 -82 -26 -40 -26 -112 0 -145 l20 -25
43 45 c23 25 74 69 112 99 74 57 155 137 155 152 0 5 -42 9 -92 9 l-93 0 -63
-53z"/>
<path d="M759 1415 c-8 -8 -30 -34 -49 -58 -19 -24 -60 -63 -90 -88 -30 -24
-76 -65 -102 -90 -45 -43 -48 -50 -48 -95 1 -57 34 -109 63 -98 9 3 17 10 17
15 0 13 68 82 158 158 93 79 170 164 178 197 3 12 4 33 2 45 -3 22 -9 24 -59
27 -41 2 -60 -1 -70 -13z"/>
<path d="M1317 1423 c-4 -3 -7 -28 -7 -54 0 -47 1 -48 75 -110 41 -34 75 -64
75 -68 0 -6 42 -55 98 -115 15 -16 46 -38 69 -48 42 -19 44 -19 88 1 25 11 45
26 45 34 0 7 -78 93 -172 190 l-173 177 -46 0 c-25 0 -49 -3 -52 -7z"/>
<path d="M1500 1424 c0 -4 22 -30 49 -58 28 -28 76 -79 108 -113 48 -52 64
-62 93 -64 72 -3 89 1 100 22 10 17 6 27 -27 63 -21 24 -60 69 -86 100 l-48
56 -95 0 c-52 0 -94 -3 -94 -6z"/>
<path d="M834 1208 c-22 -24 -62 -61 -89 -83 -73 -57 -89 -76 -104 -123 -13
-38 -12 -47 2 -77 9 -19 24 -35 33 -35 9 0 35 18 57 39 23 21 67 59 97 83 l55
44 3 97 c1 53 -1 97 -6 97 -5 0 -27 -19 -48 -42z"/>
<path d="M1316 1243 c-3 -3 -6 -46 -6 -94 l0 -87 78 -81 c77 -79 91 -87 147
-82 34 2 75 23 75 37 0 8 -21 35 -47 61 -46 46 -124 136 -150 174 -19 27 -89
79 -97 72z"/>
<path d="M2277 572 c-40 -27 -56 -53 -57 -89 0 -47 29 -89 80 -115 121 -64
147 -95 116 -143 -14 -20 -25 -25 -61 -25 -45 0 -60 -12 -29 -24 70 -27 171
38 173 112 1 15 -16 40 -50 73 -28 27 -54 49 -59 49 -21 0 -101 66 -107 88 -8
35 22 62 69 62 32 0 44 -6 66 -32 15 -17 29 -40 32 -50 11 -41 25 -20 28 40 2
51 0 62 -13 62 -8 0 -15 -4 -15 -10 0 -15 -40 -12 -56 5 -21 21 -83 19 -117
-3z"/>
<path d="M3545 570 c-139 -65 -178 -218 -85 -334 37 -46 168 -81 224 -60 32
12 14 24 -37 24 -45 0 -58 4 -83 29 -50 49 -69 152 -43 232 17 52 74 99 120
99 40 0 59 14 33 24 -29 11 -89 5 -129 -14z"/>
<path d="M4187 572 c-22 -24 -21 -35 2 -56 15 -14 24 -15 40 -6 27 14 28 56 2
70 -25 13 -25 13 -44 -8z"/>
<path d="M4900 550 c-24 -47 -12 -52 37 -14 39 30 43 54 8 54 -19 0 -29 -10
-45 -40z"/>
<path d="M5096 581 c-3 -5 1 -14 9 -21 12 -10 15 -46 15 -196 0 -100 4 -185 9
-188 5 -3 14 1 21 9 16 19 44 19 60 0 30 -37 121 -3 159 59 26 42 28 126 5
166 -20 33 -63 60 -98 60 -31 0 -35 -25 -6 -33 30 -8 42 -53 37 -134 -4 -78
-17 -103 -52 -103 -41 0 -45 18 -44 199 0 94 -3 176 -6 181 -8 12 -102 13
-109 1z"/>
<path d="M5786 582 c-3 -6 1 -15 9 -22 12 -10 15 -44 15 -180 0 -136 -3 -170
-15 -180 -24 -20 -7 -30 54 -30 62 0 77 6 61 25 -5 6 -11 97 -12 201 l-3 189
-52 3 c-28 2 -54 -1 -57 -6z"/>
<path d="M3770 570 c0 -5 -13 -10 -30 -10 -16 0 -30 -3 -30 -8 0 -4 14 -18 30
-32 17 -14 30 -34 30 -47 0 -14 6 -23 15 -23 12 0 15 14 15 65 0 51 -3 65 -15
65 -8 0 -15 -4 -15 -10z"/>
<path d="M4630 528 c-13 -18 -35 -41 -48 -52 -20 -16 -21 -20 -9 -35 9 -10 16
-52 20 -121 6 -97 8 -107 32 -128 28 -24 60 -29 71 -10 4 6 -1 17 -10 23 -14
11 -16 29 -14 121 l3 109 29 5 c39 7 39 23 1 30 -27 5 -30 9 -33 48 -2 23 -7
42 -11 42 -4 0 -18 -15 -31 -32z"/>
<path d="M2612 440 c-45 -32 -51 -50 -26 -74 33 -34 68 -8 58 43 -6 28 -4 31
18 31 73 0 58 -99 -18 -124 -60 -19 -94 -95 -58 -130 18 -19 28 -20 55 -5 16
8 18 17 13 45 -7 38 15 84 41 84 11 0 15 -11 14 -43 -3 -70 31 -108 81 -92 16
5 18 10 10 25 -6 10 -10 62 -10 115 0 93 -1 98 -29 126 -41 40 -93 40 -149 -1z"/>
<path d="M2886 461 c-3 -5 1 -14 9 -21 12 -10 15 -37 15 -120 0 -83 -3 -110
-15 -120 -8 -7 -12 -16 -10 -21 6 -9 274 -11 288 -2 5 3 2 12 -6 21 -10 12
-16 48 -19 119 -3 91 -6 105 -28 128 -24 25 -54 32 -78 17 -9 -7 -8 -13 8 -27
17 -16 20 -30 20 -116 0 -109 -12 -135 -53 -120 -20 8 -22 15 -25 106 -2 59 1
102 8 109 14 14 13 22 -6 40 -17 17 -99 22 -108 7z"/>
<path d="M3876 461 c-3 -5 1 -14 9 -21 12 -10 15 -37 15 -120 0 -83 -3 -110
-15 -120 -25 -21 -7 -30 60 -30 68 0 89 12 54 31 -20 10 -21 16 -17 118 7 138
2 151 -56 151 -25 0 -47 -4 -50 -9z"/>
<path d="M4053 463 c-21 -8 -15 -38 11 -62 24 -23 24 -23 35 -3 7 14 8 29 1
46 -9 25 -21 30 -47 19z"/>
<path d="M4146 462 c-3 -6 1 -15 9 -22 21 -18 21 -206 0 -236 -20 -29 -11 -34
55 -34 64 0 76 6 55 30 -11 12 -15 48 -17 140 l-3 125 -47 3 c-25 2 -49 -1
-52 -6z"/>
<path d="M4360 449 c-19 -16 -25 -31 -25 -61 0 -42 10 -54 94 -119 29 -23 32
-29 22 -47 -6 -11 -21 -22 -33 -24 -32 -4 -29 -22 4 -26 40 -5 91 45 91 88 0
34 0 34 -102 121 -34 29 -33 59 0 59 10 0 19 7 19 15 0 22 -40 18 -70 -6z"/>
<path d="M4875 461 c-28 -12 -52 -40 -70 -86 -52 -123 76 -255 180 -184 35 24
65 83 65 129 0 98 -94 174 -175 141z m77 -38 c24 -22 26 -167 2 -201 -17 -24
-43 -29 -62 -10 -16 16 -16 200 0 216 17 17 38 15 60 -5z"/>
<path d="M5518 444 c-41 -27 -50 -61 -22 -85 26 -21 50 2 46 45 -3 34 -1 36
26 36 31 0 42 -14 42 -54 0 -26 -23 -50 -71 -74 -49 -25 -75 -66 -63 -98 23
-67 79 -55 80 17 0 49 19 92 37 86 7 -2 14 -27 17 -55 7 -75 45 -110 90 -82
12 7 12 12 2 22 -8 8 -12 46 -12 113 0 107 -2 112 -40 138 -34 24 -88 20 -132
-9z"/>
<path d="M4460 440 c-11 -7 -11 -11 -1 -24 18 -22 31 -20 31 3 0 24 -12 32
-30 21z"/>
<path d="M2220 248 l0 -57 38 6 c20 3 39 8 41 10 3 2 -9 16 -25 31 -17 15 -36
37 -42 47 -9 17 -11 10 -12 -37z"/>
<path d="M4330 215 c0 -8 9 -15 20 -15 11 0 20 7 20 15 0 8 -9 15 -20 15 -11
0 -20 -7 -20 -15z"/>
</g>
</svg>
